<svg xmlns="http://www.w3.org/2000/svg" xmlns:xlink="http://www.w3.org/1999/xlink" width="1920" zoomAndPan="magnify" viewBox="0 0 1440 525.000007" height="700" preserveAspectRatio="xMidYMid meet" version="1.0"><defs><clipPath id="c9af188524"><path d="M 1.367188 0 L 1438.628906 0 L 1438.628906 471.554688 L 1.367188 471.554688 Z M 1.367188 0 " clip-rule="nonzero"/></clipPath><clipPath id="af17901818"><path d="M 720 -4271.277344 C -425.886719 -4271.277344 -1354.8125 -3209.546875 -1354.8125 -1899.835938 C -1354.8125 -590.128906 -425.886719 471.601562 720 471.601562 C 1865.886719 471.601562 2794.8125 -590.128906 2794.8125 -1899.835938 C 2794.8125 -3209.546875 1865.886719 -4271.277344 720 -4271.277344 Z M 720 -4271.277344 " clip-rule="nonzero"/></clipPath><linearGradient x1="83.665943" gradientTransform="matrix(16.209464, 0, 0, 16.209464, -1354.811316, -4271.318313)" y1="146.300003" x2="172.334038" gradientUnits="userSpaceOnUse" y2="146.300003" id="dcd7da8a6b"><stop stop-opacity="1" stop-color="rgb(96.949768%, 96.911621%, 96.957397%)" offset="0"/><stop stop-opacity="1" stop-color="rgb(96.963501%, 96.77124%, 97.10083%)" offset="0.125"/><stop stop-opacity="1" stop-color="rgb(97.000122%, 96.554565%, 97.343445%)" offset="0.1875"/><stop stop-opacity="1" stop-color="rgb(97.044373%, 96.398926%, 97.544861%)" offset="0.25"/><stop stop-opacity="1" stop-color="rgb(97.090149%, 96.243286%, 97.746277%)" offset="0.3125"/><stop stop-opacity="1" stop-color="rgb(97.135925%, 96.087646%, 97.946167%)" offset="0.375"/><stop stop-opacity="1" stop-color="rgb(97.181702%, 95.932007%, 98.147583%)" offset="0.4375"/><stop stop-opacity="1" stop-color="rgb(97.225952%, 95.776367%, 98.348999%)" offset="0.5"/><stop stop-opacity="1" stop-color="rgb(97.271729%, 95.620728%, 98.548889%)" offset="0.5625"/><stop stop-opacity="1" stop-color="rgb(97.317505%, 95.466614%, 98.750305%)" offset="0.625"/><stop stop-opacity="1" stop-color="rgb(97.361755%, 95.310974%, 98.951721%)" offset="0.6875"/><stop stop-opacity="1" stop-color="rgb(97.407532%, 95.155334%, 99.151611%)" offset="0.75"/><stop stop-opacity="1" stop-color="rgb(97.453308%, 94.999695%, 99.353027%)" offset="0.8125"/><stop stop-opacity="1" stop-color="rgb(97.499084%, 94.844055%, 99.554443%)" offset="0.875"/><stop stop-opacity="1" stop-color="rgb(97.535706%, 94.636536%, 99.778748%)" offset="1"/></linearGradient><clipPath id="543c3f667f"><path d="M 1.367188 0 L 1438.628906 0 L 1438.628906 471.691406 L 1.367188 471.691406 Z M 1.367188 0 " clip-rule="nonzero"/></clipPath><clipPath id="18a541bee0"><path d="M 719.996094 -4271.273438 C -425.886719 -4271.273438 -1354.8125 -3209.546875 -1354.8125 -1899.839844 C -1354.8125 -590.132812 -425.886719 471.59375 719.996094 471.59375 C 1865.882812 471.59375 2794.804688 -590.132812 2794.804688 -1899.839844 C 2794.804688 -3209.546875 1865.882812 -4271.273438 719.996094 -4271.273438 Z M 719.996094 -4271.273438 " clip-rule="nonzero"/></clipPath><clipPath id="6c5a3ea7bb"><path d="M 1.367188 0 L 1438.628906 0 L 1438.628906 483.53125 L 1.367188 483.53125 Z M 1.367188 0 " clip-rule="nonzero"/></clipPath><clipPath id="0be3300794"><path d="M 731.976562 -4259.296875 C -413.910156 -4259.296875 -1342.835938 -3197.570312 -1342.835938 -1887.859375 C -1342.835938 -578.148438 -413.910156 483.578125 731.976562 483.578125 C 1877.863281 483.578125 2806.789062 -578.148438 2806.789062 -1887.859375 C 2806.789062 -3197.570312 1877.863281 -4259.296875 731.976562 -4259.296875 Z M 731.976562 -4259.296875 " clip-rule="nonzero"/></clipPath><linearGradient x1="82.927043" gradientTransform="matrix(16.209464, 0, 0, 16.209464, -1342.83413, -4259.341126)" y1="146.300003" x2="171.595137" gradientUnits="userSpaceOnUse" y2="146.300003" id="7a328bc357"><stop stop-opacity="1" stop-color="rgb(97.674561%, 97.181702%, 99.082947%)" offset="0"/><stop stop-opacity="1" stop-color="rgb(97.625732%, 97.163391%, 98.948669%)" offset="0.0625"/><stop stop-opacity="1" stop-color="rgb(97.531128%, 97.128296%, 98.680115%)" offset="0.125"/><stop stop-opacity="1" stop-color="rgb(97.434998%, 97.093201%, 98.41156%)" offset="0.1875"/><stop stop-opacity="1" stop-color="rgb(97.340393%, 97.059631%, 98.143005%)" offset="0.25"/><stop stop-opacity="1" stop-color="rgb(97.244263%, 97.024536%, 97.874451%)" offset="0.3125"/><stop stop-opacity="1" stop-color="rgb(97.149658%, 96.989441%, 97.605896%)" offset="0.375"/><stop stop-opacity="1" stop-color="rgb(97.055054%, 96.955872%, 97.337341%)" offset="0.4375"/><stop stop-opacity="1" stop-color="rgb(96.958923%, 96.920776%, 97.068787%)" offset="0.5"/><stop stop-opacity="1" stop-color="rgb(96.990967%, 96.987915%, 97.032166%)" offset="0.5625"/><stop stop-opacity="1" stop-color="rgb(97.171021%, 97.171021%, 97.265625%)" offset="0.625"/><stop stop-opacity="1" stop-color="rgb(97.370911%, 97.370911%, 97.53418%)" offset="0.6875"/><stop stop-opacity="1" stop-color="rgb(97.569275%, 97.569275%, 97.802734%)" offset="0.75"/><stop stop-opacity="1" stop-color="rgb(97.769165%, 97.769165%, 98.071289%)" offset="0.8125"/><stop stop-opacity="1" stop-color="rgb(97.967529%, 97.967529%, 98.339844%)" offset="0.875"/><stop stop-opacity="1" stop-color="rgb(98.167419%, 98.167419%, 98.608398%)" offset="0.9375"/><stop stop-opacity="1" stop-color="rgb(98.365784%, 98.365784%, 98.876953%)" offset="1"/></linearGradient><clipPath id="a92047bb08"><path d="M 1.367188 0 L 1438.628906 0 L 1438.628906 483.667969 L 1.367188 483.667969 Z M 1.367188 0 " clip-rule="nonzero"/></clipPath><clipPath id="386311d238"><path d="M 731.972656 -4259.296875 C -413.910156 -4259.296875 -1342.835938 -3197.570312 -1342.835938 -1887.863281 C -1342.835938 -578.15625 -413.910156 483.570312 731.972656 483.570312 C 1877.859375 483.570312 2806.78125 -578.15625 2806.78125 -1887.863281 C 2806.78125 -3197.570312 1877.859375 -4259.296875 731.972656 -4259.296875 Z M 731.972656 -4259.296875 " clip-rule="nonzero"/></clipPath></defs><g clip-path="url(#c9af188524)"><g clip-path="url(#af17901818)"><path fill="url(#dcd7da8a6b)" d="M 1.367188 0 L 1.367188 471.554688 L 1438.632812 471.554688 L 1438.632812 0 Z M 1.367188 0 " fill-rule="nonzero"/></g></g><g clip-path="url(#543c3f667f)"><g clip-path="url(#18a541bee0)"><path stroke-linecap="butt" transform="matrix(0.748574, 0, 0, 0.748574, -1354.811238, -4271.274099)" fill="none" stroke-linejoin="miter" d="M 2771.679383 0.000883095 C 1240.925313 0.000883095 -0.00168628 1418.332879 -0.00168628 3167.935322 C -0.00168628 4917.537766 1240.925313 6335.869762 2771.679383 6335.869762 C 4302.433453 6335.869762 5543.360453 4917.537766 5543.360453 3167.935322 C 5543.360453 1418.332879 4302.433453 0.000883095 2771.679383 0.000883095 Z M 2771.679383 0.000883095 " stroke="#e5e5e5" stroke-width="2" stroke-opacity="1" stroke-miterlimit="4"/></g></g><g clip-path="url(#6c5a3ea7bb)"><g clip-path="url(#0be3300794)"><path fill="url(#7a328bc357)" d="M 1.367188 0 L 1.367188 483.53125 L 1438.632812 483.53125 L 1438.632812 0 Z M 1.367188 0 " fill-rule="nonzero"/></g></g><g clip-path="url(#a92047bb08)"><g clip-path="url(#386311d238)"><path stroke-linecap="butt" transform="matrix(0.748574, 0, 0, 0.748574, -1342.834052, -4259.296913)" fill="none" stroke-linejoin="miter" d="M 2771.67855 0.0000502153 C 1240.92448 0.0000502153 -0.00251916 1418.332046 -0.00251916 3167.93449 C -0.00251916 4917.536933 1240.92448 6335.868929 2771.67855 6335.868929 C 4302.437838 6335.868929 5543.35962 4917.536933 5543.35962 3167.93449 C 5543.35962 1418.332046 4302.437838 0.0000502153 2771.67855 0.0000502153 Z M 2771.67855 0.0000502153 " stroke="#e5e5e5" stroke-width="2" stroke-opacity="1" stroke-miterlimit="4"/></g></g></svg>