<svg xmlns="http://www.w3.org/2000/svg" xmlns:xlink="http://www.w3.org/1999/xlink" width="1940" zoomAndPan="magnify" viewBox="0 0 1455 693.000001" height="924" preserveAspectRatio="xMidYMid meet" version="1.0"><defs><clipPath id="9c19d04a26"><path d="M 1.046875 0 L 1453.949219 0 L 1453.949219 692 L 1.046875 692 Z M 1.046875 0 " clip-rule="nonzero"/></clipPath><clipPath id="939f890897"><path d="M 1.046875 0 L 1453.949219 0 L 1453.949219 692 L 1.046875 692 Z M 1.046875 0 " clip-rule="nonzero"/></clipPath><clipPath id="1ecee43239"><path d="M 727.5 -5881.015625 C -1087.589844 -5881.015625 -2559.007812 -4409.597656 -2559.007812 -2594.507812 C -2559.007812 -779.417969 -1087.589844 692 727.5 692 C 2542.589844 692 4014.007812 -779.417969 4014.007812 -2594.507812 C 4014.007812 -4409.597656 2542.589844 -5881.015625 727.5 -5881.015625 Z M 727.5 -5881.015625 " clip-rule="nonzero"/></clipPath></defs><g clip-path="url(#9c19d04a26)"><path fill="#ffffff" d="M 1.046875 0 L 1453.953125 0 L 1453.953125 692 L 1.046875 692 Z M 1.046875 0 " fill-opacity="1" fill-rule="nonzero"/><path fill="#ffffff" d="M 1.046875 0 L 1453.953125 0 L 1453.953125 692 L 1.046875 692 Z M 1.046875 0 " fill-opacity="1" fill-rule="nonzero"/></g><g clip-path="url(#939f890897)"><g clip-path="url(#1ecee43239)"><path fill="#5e17eb" d="M -2559.007812 -5881.015625 L 4014.007812 -5881.015625 L 4014.007812 692 L -2559.007812 692 Z M -2559.007812 -5881.015625 " fill-opacity="1" fill-rule="nonzero"/></g></g></svg>