<svg xmlns="http://www.w3.org/2000/svg" xmlns:xlink="http://www.w3.org/1999/xlink" width="500" zoomAndPan="magnify" viewBox="0 0 375 374.999991" height="500" preserveAspectRatio="xMidYMid meet" version="1.0"><defs><clipPath id="c0cf14d2cb"><path d="M 89 7 L 292 7 L 292 359 L 89 359 Z M 89 7 " clip-rule="nonzero"/></clipPath><clipPath id="beac818de1"><path d="M 9.863281 298.6875 L 98.351562 -10.65625 L 365.152344 65.664062 L 276.660156 375.007812 Z M 9.863281 298.6875 " clip-rule="nonzero"/></clipPath><clipPath id="7d427c81b2"><path d="M 98.398438 -10.8125 L 9.90625 298.53125 L 276.707031 374.851562 L 365.195312 65.507812 Z M 98.398438 -10.8125 " clip-rule="nonzero"/></clipPath></defs><g clip-path="url(#c0cf14d2cb)"><g clip-path="url(#beac818de1)"><g clip-path="url(#7d427c81b2)"><path fill="#5e17eb" d="M 230.796875 340.699219 C 236.847656 334.335938 242.527344 327.773438 247.632812 320.863281 C 253.367188 313.03125 258.265625 304.804688 261.992188 295.84375 C 271.351562 276.105469 275.128906 250.144531 270.410156 226.871094 C 266.523438 207.761719 256.753906 190.464844 238.847656 180.496094 C 236.378906 185.277344 233.578125 189.8125 230.34375 194.039062 C 224.054688 202.203125 216.109375 209.070312 205.628906 213.769531 C 198.277344 217.0625 187.152344 219.734375 178.113281 218.3125 C 170.070312 217.054688 163.546875 212.859375 160.761719 204.582031 C 155.273438 188.078125 163.78125 176.132812 178.222656 168.949219 C 194.484375 160.875 218.542969 159.511719 232.574219 163.953125 C 234.546875 159.089844 236.292969 154.164062 237.996094 149.285156 C 245 129.089844 244.257812 106.707031 236.320312 86.011719 C 228.921875 66.847656 215.40625 49.152344 196.097656 35.933594 C 180.71875 25.0625 162.460938 20.175781 145.25 18.289062 C 133.265625 16.976562 121.867188 17.273438 111.972656 18.214844 C 102.957031 19.070312 95.351562 20.144531 89.773438 22.289062 C 89.554688 22.410156 89.269531 22.328125 89.148438 22.109375 C 89.027344 21.890625 89.109375 21.609375 89.328125 21.484375 C 94.363281 17.808594 101.5625 13.980469 110.667969 11.402344 C 120.882812 8.496094 133.203125 7.238281 146.046875 7.785156 C 165.253906 8.589844 185.605469 14.195312 203.085938 25.757812 C 224.640625 40.449219 239.742188 60.222656 247.972656 81.617188 C 257.019531 105.085938 257.835938 130.523438 249.914062 153.492188 C 248.125 158.683594 246.253906 163.941406 244.132812 169.101562 C 265.941406 180.859375 278.066406 201.496094 282.542969 224.546875 C 287.546875 250.355469 282.84375 279.121094 272.183594 300.84375 C 268.144531 308.214844 263.371094 315.035156 257.929688 321.417969 C 253.921875 326.097656 249.558594 330.523438 245.003906 334.769531 C 243.363281 335.464844 241.703125 336.125 240.0625 336.820312 C 236.953125 338.046875 233.867188 339.402344 230.796875 340.699219 Z M 183.855469 180.34375 C 175.488281 184.511719 169.617188 190.988281 172.832031 200.550781 C 174.300781 204.957031 178.714844 205.914062 183.242188 205.953125 C 189.230469 206.039062 195.792969 204.207031 200.425781 202.160156 C 208.859375 198.410156 215.234375 192.84375 220.296875 186.289062 C 222.886719 182.921875 225.175781 179.3125 227.175781 175.53125 C 215.527344 172.414062 196.726562 173.9375 183.855469 180.34375 Z M 220.199219 358.457031 C 221.824219 358.554688 223.78125 358.042969 224.910156 357.628906 C 234.058594 354.050781 243.289062 350.40625 252.1875 345.992188 C 256.160156 344 260.003906 341.820312 263.828125 339.601562 C 272.847656 334.332031 281.394531 328.777344 290.265625 323.496094 C 291.320312 323.027344 291.796875 321.785156 291.304688 320.726562 C 290.835938 319.671875 289.59375 319.195312 288.535156 319.6875 C 276.855469 323.429688 265.195312 326.992188 253.53125 331.320312 C 250.648438 332.398438 247.804688 333.546875 244.953125 334.722656 C 240.566406 338.804688 235.949219 342.726562 231.160156 346.507812 C 230.289062 347.300781 228.929688 347.21875 228.136719 346.347656 C 227.34375 345.476562 227.425781 344.121094 228.296875 343.328125 C 229.128906 342.460938 229.957031 341.59375 230.789062 340.730469 C 230.089844 341.019531 229.359375 341.332031 228.660156 341.625 C 232.519531 329.847656 239.066406 312.863281 240.558594 308.722656 L 243.859375 298.566406 C 243.984375 297.59375 245.164062 295.722656 245.082031 294.625 C 244.96875 293.089844 245.128906 293.808594 244.605469 293.171875 C 243.90625 292.296875 245.078125 292.386719 244.570312 292.117188 C 243.617188 291.597656 245.015625 290.988281 244.242188 291.011719 C 243.804688 291.039062 244.3125 290.449219 243.90625 290.578125 C 242.921875 290.910156 243.164062 288.679688 242.496094 290.050781 C 242.355469 290.320312 242.117188 289.761719 242.0625 290.171875 C 241.886719 291.320312 240.984375 288.792969 241.875 291.683594 C 241.65625 291.804688 241.601562 292.097656 241.722656 292.316406 C 241.847656 292.535156 242.136719 292.585938 242.355469 292.464844 C 243.214844 293.324219 242.828125 293.0625 242.828125 293.0625 C 242.828125 293.0625 243.230469 293.910156 242.949219 293.492188 C 242.625 293.03125 242.753906 294.082031 242.597656 293.761719 C 242.382812 293.332031 242.15625 294.125 242.078125 293.765625 C 241.96875 293.183594 241.359375 294.019531 241.441406 293.523438 C 241.480469 293.164062 240.964844 293.570312 241.09375 293.238281 C 241.4375 292.355469 239.425781 292.636719 240.507812 292.058594 C 240.945312 291.816406 239.394531 291.128906 240.414062 291.113281 C 240.691406 291.101562 240.148438 290.421875 240.128906 290.816406 C 240.078125 291.324219 239.988281 290.347656 239.296875 290.515625 C 238.335938 290.761719 237.230469 291.734375 236.242188 292.617188 C 235.496094 293.292969 235.140625 294.109375 234.828125 294.664062 L 229.980469 304.53125 C 227.855469 309.71875 216.988281 334.511719 213.84375 345.082031 C 212.898438 348.277344 212.726562 350.707031 212.820312 351.871094 C 213.101562 354.433594 214.433594 355.886719 215.554688 356.792969 C 216.773438 357.785156 218.382812 358.367188 220.199219 358.457031 Z M 220.199219 358.457031 " fill-opacity="1" fill-rule="nonzero"/></g></g></g></svg>