<svg xmlns="http://www.w3.org/2000/svg" xmlns:xlink="http://www.w3.org/1999/xlink" width="1920" zoomAndPan="magnify" viewBox="0 0 1440 809.999993" height="1080" preserveAspectRatio="xMidYMid meet" version="1.0"><defs><g/></defs><g fill="#1f2937" fill-opacity="1"><g transform="translate(-9.068068, 521.181531)"><g><path d="M 185.902344 -59.042969 C 167.949219 -52.660156 152.792969 -48.269531 140.027344 -48.269531 C 117.285156 -48.269531 104.917969 -61.835938 104.917969 -87.765625 L 104.917969 -165.558594 L 186.300781 -165.558594 L 186.300781 -219.414062 L 104.917969 -219.414062 L 104.917969 -279.253906 L 47.871094 -266.886719 L 47.871094 -219.414062 L 8.777344 -219.414062 L 8.777344 -165.558594 L 47.871094 -165.558594 L 47.871094 -84.574219 C 47.871094 -21.542969 86.167969 4.789062 130.050781 4.789062 C 156.382812 4.789062 183.507812 -4.789062 195.476562 -12.765625 Z M 185.902344 -59.042969 "/></g></g></g><g fill="#1f2937" fill-opacity="1"><g transform="translate(173.64238, 521.181531)"><g><path d="M 131.648438 -224.199219 C 68.617188 -224.199219 17.554688 -175.929688 17.554688 -109.707031 C 17.554688 -43.882812 67.820312 4.789062 131.648438 4.789062 C 195.875 4.789062 246.140625 -43.484375 246.140625 -109.707031 C 246.140625 -175.929688 195.078125 -224.199219 131.648438 -224.199219 Z M 131.648438 -169.945312 C 163.5625 -169.945312 188.296875 -145.609375 188.296875 -109.707031 C 188.296875 -73.402344 163.5625 -49.46875 131.648438 -49.46875 C 99.734375 -49.46875 75 -73.402344 75 -109.707031 C 75 -145.609375 99.734375 -169.945312 131.648438 -169.945312 Z M 131.648438 -169.945312 "/></g></g></g><g fill="#1f2937" fill-opacity="1"><g transform="translate(409.809756, 521.181531)"><g><path d="M 131.648438 -224.199219 C 68.617188 -224.199219 17.554688 -175.929688 17.554688 -109.707031 C 17.554688 -43.882812 67.820312 4.789062 131.648438 4.789062 C 195.875 4.789062 246.140625 -43.484375 246.140625 -109.707031 C 246.140625 -175.929688 195.078125 -224.199219 131.648438 -224.199219 Z M 131.648438 -169.945312 C 163.5625 -169.945312 188.296875 -145.609375 188.296875 -109.707031 C 188.296875 -73.402344 163.5625 -49.46875 131.648438 -49.46875 C 99.734375 -49.46875 75 -73.402344 75 -109.707031 C 75 -145.609375 99.734375 -169.945312 131.648438 -169.945312 Z M 131.648438 -169.945312 "/></g></g></g><g fill="#1f2937" fill-opacity="1"><g transform="translate(645.977133, 521.181531)"><g><path d="M 23.136719 0 L 80.183594 0 L 80.183594 -307.179688 L 23.136719 -307.179688 Z M 23.136719 0 "/></g></g></g><g fill="#1f2937" fill-opacity="1"><g transform="translate(721.773765, 521.181531)"><g><path d="M 149.199219 -224.199219 C 118.484375 -224.199219 94.945312 -209.839844 79.785156 -188.695312 L 79.785156 -307.179688 L 22.738281 -307.179688 L 22.738281 0 L 79.785156 0 L 79.785156 -29.519531 C 95.34375 -8.777344 118.085938 4.789062 149.199219 4.789062 C 206.25 4.789062 249.332031 -42.285156 249.332031 -109.707031 C 249.332031 -177.523438 205.449219 -224.199219 149.199219 -224.199219 Z M 136.035156 -49.46875 C 104.121094 -49.46875 79.785156 -73.402344 79.785156 -109.707031 C 79.785156 -145.609375 104.121094 -169.945312 136.035156 -169.945312 C 167.949219 -169.945312 191.488281 -145.609375 191.488281 -109.707031 C 191.488281 -73.402344 167.550781 -49.46875 136.035156 -49.46875 Z M 136.035156 -49.46875 "/></g></g></g><g fill="#1f2937" fill-opacity="1"><g transform="translate(961.132567, 521.181531)"><g><path d="M 51.460938 -320.742188 C 31.515625 -320.742188 15.957031 -306.78125 15.957031 -287.230469 C 15.957031 -267.683594 31.515625 -253.324219 51.460938 -253.324219 C 72.207031 -253.324219 86.96875 -267.683594 86.96875 -287.230469 C 86.96875 -306.78125 72.207031 -320.742188 51.460938 -320.742188 Z M 22.738281 0 L 79.785156 0 L 79.785156 -219.414062 L 22.738281 -219.414062 Z M 22.738281 0 "/></g></g></g><g fill="#1f2937" fill-opacity="1"><g transform="translate(1036.929243, 521.181531)"><g><path d="M 148.402344 -224.199219 C 117.285156 -224.199219 93.351562 -209.839844 79.785156 -181.117188 L 79.785156 -219.414062 L 22.738281 -219.414062 L 22.738281 0 L 79.785156 0 L 79.785156 -97.738281 C 79.785156 -149.601562 110.902344 -165.558594 147.207031 -165.558594 C 153.589844 -165.558594 156.78125 -165.160156 161.167969 -164.757812 L 161.167969 -223.402344 C 157.578125 -223.800781 153.589844 -224.199219 148.402344 -224.199219 Z M 148.402344 -224.199219 "/></g></g></g><g fill="#1f2937" fill-opacity="1"><g transform="translate(1179.347553, 521.181531)"><g><path d="M 189.890625 -307.179688 L 189.890625 -188.695312 C 174.734375 -209.839844 151.59375 -224.199219 120.476562 -224.199219 C 64.226562 -224.199219 20.746094 -177.523438 20.746094 -109.707031 C 20.746094 -42.285156 63.828125 4.789062 120.875 4.789062 C 151.59375 4.789062 174.734375 -8.777344 189.890625 -29.519531 L 189.890625 0 L 246.941406 0 L 246.941406 -307.179688 Z M 133.640625 -49.46875 C 102.125 -49.46875 78.191406 -73.402344 78.191406 -109.707031 C 78.191406 -145.609375 101.726562 -169.945312 133.640625 -169.945312 C 165.558594 -169.945312 189.890625 -145.609375 189.890625 -109.707031 C 189.890625 -73.402344 165.558594 -49.46875 133.640625 -49.46875 Z M 133.640625 -49.46875 "/></g></g></g><g fill="#4b5563" fill-opacity="1"><g transform="translate(39.741106, 641.836404)"><g><path d="M 53.914062 -56.917969 L 53.914062 -45.222656 C 49.570312 -52.984375 41.808594 -58.054688 31.976562 -58.054688 C 16.558594 -58.054688 5.382812 -45.742188 5.382812 -28.457031 C 5.382812 -11.28125 16.453125 1.136719 31.976562 1.136719 C 41.808594 1.136719 49.464844 -3.828125 53.914062 -11.488281 L 53.914062 0 L 62.503906 0 L 62.503906 -56.917969 Z M 33.632812 -7.035156 C 22.144531 -7.035156 14.074219 -15.9375 14.074219 -28.457031 C 14.074219 -40.875 22.042969 -49.878906 33.632812 -49.878906 C 45.222656 -49.878906 54.019531 -40.980469 54.019531 -28.457031 C 54.019531 -15.9375 45.222656 -7.035156 33.632812 -7.035156 Z M 33.632812 -7.035156 "/></g></g></g><g fill="#4b5563" fill-opacity="1"><g transform="translate(109.898226, 641.836404)"><g/></g></g><g fill="#4b5563" fill-opacity="1"><g transform="translate(140.941204, 641.836404)"><g><path d="M 39.738281 -37.667969 L 39.738281 -30.320312 L 69.542969 -30.320312 C 68.300781 -15.9375 57.433594 -6.828125 43.152344 -6.828125 C 26.183594 -6.828125 14.695312 -19.558594 14.695312 -36.011719 C 14.695312 -52.984375 26.800781 -65.402344 43.152344 -65.402344 C 54.640625 -65.402344 64.058594 -59.195312 68.402344 -49.671875 L 77.613281 -49.671875 C 72.644531 -64.160156 59.605469 -73.578125 43.257812 -73.578125 C 22.042969 -73.578125 6.003906 -57.746094 6.003906 -36.21875 C 6.003906 -14.695312 21.9375 1.136719 42.636719 1.136719 C 56.296875 1.136719 67.058594 -5.898438 70.679688 -16.972656 L 70.679688 0 L 78.234375 0 L 78.234375 -37.667969 Z M 39.738281 -37.667969 "/></g></g></g><g fill="#4b5563" fill-opacity="1"><g transform="translate(227.654583, 641.836404)"><g><path d="M 53.914062 -56.917969 L 53.914062 -45.222656 C 49.570312 -52.984375 41.808594 -58.054688 31.976562 -58.054688 C 16.558594 -58.054688 5.382812 -45.742188 5.382812 -28.457031 C 5.382812 -11.28125 16.453125 1.136719 31.976562 1.136719 C 41.808594 1.136719 49.464844 -3.828125 53.914062 -11.488281 L 53.914062 0 L 62.503906 0 L 62.503906 -56.917969 Z M 33.632812 -7.035156 C 22.144531 -7.035156 14.074219 -15.9375 14.074219 -28.457031 C 14.074219 -40.875 22.042969 -49.878906 33.632812 -49.878906 C 45.222656 -49.878906 54.019531 -40.980469 54.019531 -28.457031 C 54.019531 -15.9375 45.222656 -7.035156 33.632812 -7.035156 Z M 33.632812 -7.035156 "/></g></g></g><g fill="#4b5563" fill-opacity="1"><g transform="translate(297.811703, 641.836404)"><g><path d="M 15.109375 -8.070312 L 51.226562 -48.742188 L 51.226562 -56.917969 L 6.210938 -56.917969 L 6.210938 -48.742188 L 40.253906 -48.84375 L 4.242188 -8.175781 L 4.242188 0 L 51.535156 0 L 51.535156 -8.175781 Z M 15.109375 -8.070312 "/></g></g></g><g fill="#4b5563" fill-opacity="1"><g transform="translate(353.58558, 641.836404)"><g><path d="M 34.460938 -58.054688 C 17.488281 -58.054688 5.382812 -45.535156 5.382812 -28.25 C 5.382812 -10.867188 17.695312 1.136719 34.5625 1.136719 C 46.464844 1.136719 56.8125 -4.761719 61.574219 -16.867188 L 52.675781 -16.867188 C 49.257812 -10.246094 42.738281 -6.933594 34.875 -6.933594 C 23.386719 -6.933594 15.003906 -14.074219 14.175781 -25.871094 L 62.917969 -25.871094 C 63.644531 -44.601562 52.15625 -58.054688 34.460938 -58.054688 Z M 34.460938 -49.984375 C 44.707031 -49.984375 51.742188 -43.464844 53.605469 -33.941406 L 14.589844 -33.941406 C 16.558594 -43.257812 24.007812 -49.984375 34.460938 -49.984375 Z M 34.460938 -49.984375 "/></g></g></g><g fill="#4b5563" fill-opacity="1"><g transform="translate(421.362729, 641.836404)"><g><path d="M 7.96875 0 L 16.558594 0 L 16.558594 -79.683594 L 7.96875 -79.683594 Z M 7.96875 0 "/></g></g></g><g fill="#4b5563" fill-opacity="1"><g transform="translate(445.26582, 641.836404)"><g><path d="M 7.96875 0 L 16.558594 0 L 16.558594 -79.683594 L 7.96875 -79.683594 Z M 7.96875 0 "/></g></g></g><g fill="#4b5563" fill-opacity="1"><g transform="translate(469.16891, 641.836404)"><g><path d="M 53.914062 -56.917969 L 53.914062 -45.222656 C 49.570312 -52.984375 41.808594 -58.054688 31.976562 -58.054688 C 16.558594 -58.054688 5.382812 -45.742188 5.382812 -28.457031 C 5.382812 -11.28125 16.453125 1.136719 31.976562 1.136719 C 41.808594 1.136719 49.464844 -3.828125 53.914062 -11.488281 L 53.914062 0 L 62.503906 0 L 62.503906 -56.917969 Z M 33.632812 -7.035156 C 22.144531 -7.035156 14.074219 -15.9375 14.074219 -28.457031 C 14.074219 -40.875 22.042969 -49.878906 33.632812 -49.878906 C 45.222656 -49.878906 54.019531 -40.980469 54.019531 -28.457031 C 54.019531 -15.9375 45.222656 -7.035156 33.632812 -7.035156 Z M 33.632812 -7.035156 "/></g></g></g><g fill="#4b5563" fill-opacity="1"><g transform="translate(539.326042, 641.836404)"><g/></g></g><g fill="#4b5563" fill-opacity="1"><g transform="translate(570.369009, 641.836404)"><g><path d="M 58.882812 -72.441406 L 3.519531 -72.441406 L 3.519531 -64.265625 L 26.800781 -64.265625 L 26.800781 0 L 35.496094 0 L 35.496094 -64.265625 L 58.882812 -64.265625 Z M 58.882812 -72.441406 "/></g></g></g><g fill="#4b5563" fill-opacity="1"><g transform="translate(632.765398, 641.836404)"><g><path d="M 34.460938 -58.054688 C 17.488281 -58.054688 5.382812 -45.535156 5.382812 -28.25 C 5.382812 -10.867188 17.695312 1.136719 34.5625 1.136719 C 46.464844 1.136719 56.8125 -4.761719 61.574219 -16.867188 L 52.675781 -16.867188 C 49.257812 -10.246094 42.738281 -6.933594 34.875 -6.933594 C 23.386719 -6.933594 15.003906 -14.074219 14.175781 -25.871094 L 62.917969 -25.871094 C 63.644531 -44.601562 52.15625 -58.054688 34.460938 -58.054688 Z M 34.460938 -49.984375 C 44.707031 -49.984375 51.742188 -43.464844 53.605469 -33.941406 L 14.589844 -33.941406 C 16.558594 -43.257812 24.007812 -49.984375 34.460938 -49.984375 Z M 34.460938 -49.984375 "/></g></g></g><g fill="#4b5563" fill-opacity="1"><g transform="translate(700.542571, 641.836404)"><g><path d="M 53.914062 -56.917969 L 53.914062 -45.222656 C 49.570312 -52.984375 41.808594 -58.054688 31.976562 -58.054688 C 16.558594 -58.054688 5.382812 -45.742188 5.382812 -28.457031 C 5.382812 -11.28125 16.453125 1.136719 31.976562 1.136719 C 41.808594 1.136719 49.464844 -3.828125 53.914062 -11.488281 L 53.914062 0 L 62.503906 0 L 62.503906 -56.917969 Z M 33.632812 -7.035156 C 22.144531 -7.035156 14.074219 -15.9375 14.074219 -28.457031 C 14.074219 -40.875 22.042969 -49.878906 33.632812 -49.878906 C 45.222656 -49.878906 54.019531 -40.980469 54.019531 -28.457031 C 54.019531 -15.9375 45.222656 -7.035156 33.632812 -7.035156 Z M 33.632812 -7.035156 "/></g></g></g><g fill="#4b5563" fill-opacity="1"><g transform="translate(770.699703, 641.836404)"><g><path d="M 72.128906 -58.054688 C 62.402344 -58.054688 56.191406 -52.878906 52.570312 -45.015625 C 50.292969 -53.398438 44.085938 -58.054688 34.769531 -58.054688 C 25.664062 -58.054688 19.972656 -53.5 16.246094 -46.15625 L 16.246094 -56.917969 L 7.65625 -56.917969 L 7.65625 0 L 16.246094 0 L 16.246094 -29.183594 C 16.246094 -40.667969 21.523438 -49.878906 32.183594 -49.878906 C 40.773438 -49.878906 45.015625 -45.015625 45.015625 -35.390625 L 45.015625 0 L 53.707031 0 L 53.605469 -29.183594 C 53.605469 -40.667969 58.882812 -49.878906 69.644531 -49.878906 C 78.132812 -49.878906 82.476562 -45.015625 82.476562 -35.390625 L 82.476562 0 L 91.066406 0 L 91.066406 -36.945312 C 91.066406 -50.398438 84.132812 -58.054688 72.128906 -58.054688 Z M 72.128906 -58.054688 "/></g></g></g><g fill="#4b5563" fill-opacity="1"><g transform="translate(868.899023, 641.836404)"><g/></g></g><g fill="#4b5563" fill-opacity="1"><g transform="translate(899.94199, 641.836404)"><g><path d="M 34.769531 1.136719 C 47.808594 1.136719 59.296875 -6.621094 62.402344 -19.867188 L 53.5 -19.867188 C 50.8125 -11.902344 43.566406 -6.828125 34.769531 -6.828125 C 22.871094 -6.828125 14.074219 -15.832031 14.074219 -28.457031 C 14.074219 -40.980469 22.765625 -50.085938 34.769531 -50.085938 C 43.566406 -50.085938 50.8125 -45.121094 53.5 -37.046875 L 62.402344 -37.046875 C 59.398438 -50.085938 48.015625 -58.054688 34.769531 -58.054688 C 18.109375 -58.054688 5.382812 -45.429688 5.382812 -28.457031 C 5.382812 -11.488281 18.109375 1.136719 34.769531 1.136719 Z M 34.769531 1.136719 "/></g></g></g><g fill="#4b5563" fill-opacity="1"><g transform="translate(966.684388, 641.836404)"><g><path d="M 34.667969 -58.054688 C 18.523438 -58.054688 5.382812 -45.535156 5.382812 -28.457031 C 5.382812 -11.488281 18.316406 1.136719 34.667969 1.136719 C 51.121094 1.136719 64.058594 -11.382812 64.058594 -28.457031 C 64.058594 -45.535156 50.914062 -58.054688 34.667969 -58.054688 Z M 34.667969 -49.878906 C 46.15625 -49.878906 55.363281 -40.980469 55.363281 -28.457031 C 55.363281 -15.9375 46.257812 -7.035156 34.667969 -7.035156 C 23.179688 -7.035156 14.074219 -15.9375 14.074219 -28.457031 C 14.074219 -41.082031 23.285156 -49.878906 34.667969 -49.878906 Z M 34.667969 -49.878906 "/></g></g></g><g fill="#4b5563" fill-opacity="1"><g transform="translate(1036.0137, 641.836404)"><g><path d="M 72.128906 -58.054688 C 62.402344 -58.054688 56.191406 -52.878906 52.570312 -45.015625 C 50.292969 -53.398438 44.085938 -58.054688 34.769531 -58.054688 C 25.664062 -58.054688 19.972656 -53.5 16.246094 -46.15625 L 16.246094 -56.917969 L 7.65625 -56.917969 L 7.65625 0 L 16.246094 0 L 16.246094 -29.183594 C 16.246094 -40.667969 21.523438 -49.878906 32.183594 -49.878906 C 40.773438 -49.878906 45.015625 -45.015625 45.015625 -35.390625 L 45.015625 0 L 53.707031 0 L 53.605469 -29.183594 C 53.605469 -40.667969 58.882812 -49.878906 69.644531 -49.878906 C 78.132812 -49.878906 82.476562 -45.015625 82.476562 -35.390625 L 82.476562 0 L 91.066406 0 L 91.066406 -36.945312 C 91.066406 -50.398438 84.132812 -58.054688 72.128906 -58.054688 Z M 72.128906 -58.054688 "/></g></g></g><g fill="#4b5563" fill-opacity="1"><g transform="translate(1134.212975, 641.836404)"><g><path d="M 38.703125 -58.054688 C 28.871094 -58.054688 21.109375 -52.984375 16.765625 -45.222656 L 16.765625 -56.917969 L 8.175781 -56.917969 L 8.175781 25.871094 L 16.765625 25.871094 L 16.765625 -11.488281 C 21.109375 -3.828125 28.769531 1.136719 38.601562 1.136719 C 54.121094 1.136719 65.300781 -11.28125 65.300781 -28.457031 C 65.300781 -45.742188 54.121094 -58.054688 38.703125 -58.054688 Z M 37.046875 -7.035156 C 25.457031 -7.035156 16.660156 -15.9375 16.660156 -28.457031 C 16.660156 -40.980469 25.457031 -49.878906 37.046875 -49.878906 C 48.535156 -49.878906 56.605469 -40.875 56.605469 -28.457031 C 56.605469 -15.9375 48.535156 -7.035156 37.046875 -7.035156 Z M 37.046875 -7.035156 "/></g></g></g><g fill="#4b5563" fill-opacity="1"><g transform="translate(1204.887471, 641.836404)"><g><path d="M 53.914062 -56.917969 L 53.914062 -45.222656 C 49.570312 -52.984375 41.808594 -58.054688 31.976562 -58.054688 C 16.558594 -58.054688 5.382812 -45.742188 5.382812 -28.457031 C 5.382812 -11.28125 16.453125 1.136719 31.976562 1.136719 C 41.808594 1.136719 49.464844 -3.828125 53.914062 -11.488281 L 53.914062 0 L 62.503906 0 L 62.503906 -56.917969 Z M 33.632812 -7.035156 C 22.144531 -7.035156 14.074219 -15.9375 14.074219 -28.457031 C 14.074219 -40.875 22.042969 -49.878906 33.632812 -49.878906 C 45.222656 -49.878906 54.019531 -40.980469 54.019531 -28.457031 C 54.019531 -15.9375 45.222656 -7.035156 33.632812 -7.035156 Z M 33.632812 -7.035156 "/></g></g></g><g fill="#4b5563" fill-opacity="1"><g transform="translate(1275.044602, 641.836404)"><g><path d="M 36.632812 -58.054688 C 26.699219 -58.054688 20.074219 -53.292969 16.246094 -45.636719 L 16.246094 -56.917969 L 7.65625 -56.917969 L 7.65625 0 L 16.246094 0 L 16.246094 -29.183594 C 16.246094 -41.703125 22.664062 -49.878906 34.253906 -49.878906 C 43.566406 -49.878906 48.636719 -44.707031 48.636719 -34.460938 L 48.636719 0 L 57.226562 0 L 57.226562 -36.117188 C 57.226562 -49.984375 49.464844 -58.054688 36.632812 -58.054688 Z M 36.632812 -58.054688 "/></g></g></g><g fill="#4b5563" fill-opacity="1"><g transform="translate(1339.303541, 641.836404)"><g><path d="M 49.050781 -56.917969 L 30.320312 -16.144531 L 11.902344 -56.917969 L 2.691406 -56.917969 L 25.769531 -6.933594 L 10.660156 25.871094 L 19.867188 25.871094 L 58.261719 -56.917969 Z M 49.050781 -56.917969 "/></g></g></g></svg>